<svg version="1" xmlns="http://www.w3.org/2000/svg" width="1066.667" height="1066.667" viewBox="0 0 800.000000 800.000000"><path d="M65.4 122.5V234h19.3c10.6 0 19.3-.3 19.4-.8 0-.4.1-41.8.1-92l.1-91.2 2.1-.1c14.1-.4 586.8 0 587.3.5.3.3.6 41.8.6 92.1l-.1 91.5h38.7V11H65.4v111.5zM429.2 247c-.4.3-.7 70.5-.7 156v155.5h61V494c0-35.5.3-64.7.7-65 .3-.3 35.8-.5 78.7-.5H647v-51H490l-.1-2.5c-.7-15.5-.2-74 .6-74.1.6-.1 35.9-.2 78.5-.3l77.5-.1.3-27 .2-27.1H538.5c-59.7 0-108.9.3-109.3.6zM215.8 247.8l-50.8.2v309.5h212.5v-53h-75.7c-41.6 0-75.9-.3-76.3-.7-.5-.5-.9-124.4-.6-189.6l.1-13.2h152.6l-.1-25.9c0-14.3-.3-26.2-.6-26.5-.7-.8-89.8-1.2-161.1-.8zM687.3 247.8l-11.3.3V301h33l.1 4.2c0 2.4 0 20.6.1 40.6V382l6.5 9.2c3.6 5.1 6.7 9.8 7 10.5.3.7-2.7 4.8-6.5 9.1l-6.9 7.9-.1 33.9c-.1 18.7-.2 37.9-.2 42.9v9l-16.5-.1H676l.2 26.5.3 26.6h33.3c22.5-.1 33.5-.4 34-1.1.4-.6 2.1-2.9 3.9-5 1.8-2.1 6.4-7.8 10.3-12.6l7-8.6v-54.9l.1-54.8 12-8.5 12.1-8.4-7.4-7.1c-4.1-3.8-9.5-8.9-12.1-11.2l-4.7-4.1V275.1l-11.2-13.6-11.3-13.5h-11c-6-.1-15.9-.2-22-.3-6-.1-16.1-.1-22.2.1zM54.9 249.2c-.8.7-4.2 4.7-7.5 8.8-3.2 4.1-6.6 8.1-7.4 9-.8.9-2.7 3.1-4.2 5l-2.8 3.4V381l-7.2 6.8c-4 3.7-9.3 8.7-11.9 11.2l-4.7 4.5 11.9 8.5 11.8 8.5.1 54.8V530l6.2 7.8c3.5 4.2 6.5 7.9 6.8 8.2.5.4 7.8 9.6 8.8 11 .6.8 66.4.5 66.9-.4.7-1.1 1-51.5.3-51.7-.3-.1-7.7-.2-16.5-.3l-16-.1-.5-43.2-.5-43.1-5-5.8c-2.7-3.2-5.8-6.7-6.9-7.7-1.8-1.9-1.8-2.1-.1-5.1 1-1.7 2.1-3.3 2.5-3.6.3-.3 2.7-3.5 5.3-7.1l4.7-6.7V301h16.5c10.3 0 16.5-.4 16.6-1 0-.6.1-11.8.1-25s-.1-24.7-.1-25.5c-.1-1.3-4.4-1.5-32.9-1.5-24.8 0-33.2.3-34.3 1.2zM66.1 566c-1.3.8-.9 221.9.3 222.3.6.2 150.7.3 333.6.3l332.5-.1.3-111.3c.1-61.1-.1-111.3-.5-111.3-.5-.1-9.2-.2-19.4-.3l-18.6-.1-.1 91c0 50.1-.1 91.6-.1 92.2-.1 1-62.2 1.3-295 1.3H104.2l.1-91.6c0-50.3-.4-91.8-.7-92.2-.8-.8-36.4-1-37.5-.2z"/></svg>